# xmcd CD database file generated by Grip 3.2.0
# 
# Track frame offsets:
#       150
#       14347
#       29699
#       43314
#       57422
#       71131
#       97045
#       108980
#       121081
#       133346
#       149742
#       162308
#       173960
#       188562
#       201976
#       211707
#       227395
#       242066
# 
# Disc length: 3496 seconds
# 
# Revision: 1
# Processed by: cddbd v1.5.1PL2 Copyright (c) Steve Scherf et al.
# Submitted via: Grip 3.2.0
# 
DISCID=0f0da612
DTITLE=Various Artist - The greatest Era in Jazz from Swing to Bebop CD7
DYEAR=1900
DGENRE=Jazz
TTITLE0=Zoot Sims - Crystals (Linger Awhile)
TTITLE1=Charlie Parker - An Oscar For Treadwell
TTITLE2=Woody Herman - Early Autumn (Summer Sequence Part 4)
TTITLE3=Lester Young - East Of The Sun (West Of The Moon)
TTITLE4=Ray Anthony - I Let A Song Go Out Of My Heart
TTITLE5=Miles Davis - Chasin' The Bird
TTITLE6=Benny Goodman - Small Group Recordings - Al I Do Is Dream Of You
TTITLE7=Buddy Rich - A Little Handycap
TTITLE8=Mel Tormè - But Beautiful
TTITLE9=Stan Kenton - Easy Street
TTITLE10=Ella Fitzgerald - Cry Out Of My Heart
TTITLE11=Muggsy Spanier - At Sundwon
TTITLE12=Jelly Roll Morton - I Thought, I Heard Buddy Bolden Say
TTITLE13=Eddie Condon - Ballin' The Jack
TTITLE14=Les Brown - I Guess I'll Have To Change My Mind
TTITLE15=Eddie Condo - I Must Have That Man
TTITLE16=Bill Coleman and Dickie Wells and Lester Young and Joe Bushkin and John Simmon
TTITLE16=s and Jo Jones - I Got Rhythm
TTITLE17=Eddie Condon - A Good Man Is Hard To Find
EXTD=
EXTT0=
EXTT1=
EXTT2=
EXTT3=
EXTT4=
EXTT5=
EXTT6=
EXTT7=
EXTT8=
EXTT9=
EXTT10=
EXTT11=
EXTT12=
EXTT13=
EXTT14=
EXTT15=
EXTT16=
EXTT17=
PLAYORDER=
